# xmcd
#
# Track frame offsets: 
#        150
#        19265
#        32560
#        50410
#        63102
#        77547
#        90127
#        108490
#        121025
#        130890
#        147072
#        160300
#        172077
#        183625
#        198700
#
# Disc length: 2809 seconds
#
# Revision: 1
# Processed by: cddbd v1.4PL0 Copyright (c) Steve Scherf et al.
# Submitted via: ExactAudioCopy v0.90b3
#
DISCID=c10af70f
DTITLE=Marty Robbins - The Very Best Of Disc 2
DYEAR=1998
DGENRE=Country
TTITLE0=El Paso City
TTITLE1=The Cowboy In The Continental Suit
TTITLE2=Big Iron
TTITLE3=Love Me
TTITLE4=Cool Water
TTITLE5=Tonight Carmen
TTITLE6=You Gave Me A Mountain
TTITLE7=It's Your World
TTITLE8=Stairway Of Love
TTITLE9=My Woman, My Woman, My Wife
TTITLE10=Return To Me
TTITLE11=Among My Souvenirs
TTITLE12=My Happiness
TTITLE13=I Walk Alone
TTITLE14=I'll Go On Alone
EXTD=
EXTT0=
EXTT1=
EXTT2=
EXTT3=
EXTT4=
EXTT5=
EXTT6=
EXTT7=
EXTT8=
EXTT9=
EXTT10=
EXTT11=
EXTT12=
EXTT13=
EXTT14=
PLAYORDER=
